<?xml version="1.0" encoding="UTF-8" standalone="no"?>
<!-- Created with Inkscape (http://www.inkscape.org/) -->

<svg
   xmlns:dc="http://purl.org/dc/elements/1.1/"
   xmlns:cc="http://creativecommons.org/ns#"
   xmlns:rdf="http://www.w3.org/1999/02/22-rdf-syntax-ns#"
   xmlns:svg="http://www.w3.org/2000/svg"
   xmlns="http://www.w3.org/2000/svg"
   xmlns:sodipodi="http://sodipodi.sourceforge.net/DTD/sodipodi-0.dtd"
   xmlns:inkscape="http://www.inkscape.org/namespaces/inkscape"
   width="99.437027mm"
   height="14.63509mm"
   viewBox="0 0 352.33592 51.856618"
   id="svg2"
   version="1.1"
   inkscape:version="0.91 r13725"
   sodipodi:docname="scallop.svg">
  <defs
     id="defs4" />
  <sodipodi:namedview
     id="base"
     pagecolor="#ffffff"
     bordercolor="#666666"
     borderopacity="1.0"
     inkscape:pageopacity="0.0"
     inkscape:pageshadow="2"
     inkscape:zoom="0.24748737"
     inkscape:cx="1092.1364"
     inkscape:cy="705.14762"
     inkscape:document-units="px"
     inkscape:current-layer="layer1"
     showgrid="false"
     inkscape:window-width="1920"
     inkscape:window-height="1020"
     inkscape:window-x="0"
     inkscape:window-y="0"
     inkscape:window-maximized="1"
     inkscape:snap-bbox="false"
     inkscape:snap-to-guides="false"
     inkscape:bbox-nodes="false"
     inkscape:bbox-paths="false"
     inkscape:snap-grids="false"
     inkscape:object-paths="true"
     inkscape:object-nodes="true"
     inkscape:snap-smooth-nodes="true"
     fit-margin-top="0"
     fit-margin-left="0"
     fit-margin-right="0"
     fit-margin-bottom="0">
    <inkscape:grid
       type="xygrid"
       id="grid3491"
       empspacing="1"
       dotted="true"
       originx="20.806639"
       originy="1347.7464" />
  </sodipodi:namedview>
  <metadata
     id="metadata7">
    <rdf:RDF>
      <cc:Work
         rdf:about="">
        <dc:format>image/svg+xml</dc:format>
        <dc:type
           rdf:resource="http://purl.org/dc/dcmitype/StillImage" />
        <dc:title></dc:title>
      </cc:Work>
    </rdf:RDF>
  </metadata>
  <g
     inkscape:label="Layer 1"
     inkscape:groupmode="layer"
     id="layer1"
     transform="translate(20.806641,-2348.252)">
    <path
       style="fill:#008080;fill-rule:evenodd;stroke:none;stroke-width:1;stroke-linecap:butt;stroke-linejoin:miter;stroke-miterlimit:4;stroke-dasharray:none;stroke-opacity:1"
       d="m -20.806641,2348.252 0,33.5253 c 2.356771,6.3501 10.309958,7.3772 15.728516,7.2754 2.195679,9.9032 16.284204,15.253 23.609375,6.9981 1.960029,-2.2088 3.71875,-4.9093 4.414062,-7.4141 5.973245,1.7296 12.289315,-1.8576 14.916016,-7.1504 0.02904,0.097 0.05042,0.1937 0.08167,0.291 2.356771,6.3501 10.310317,7.3772 15.728875,7.2754 2.195679,9.9032 16.284204,15.253 23.609375,6.9981 1.960029,-2.2088 3.71875,-4.9093 4.414062,-7.4141 5.973244,1.7296 12.289315,-1.8576 14.916016,-7.1504 0.02904,0.097 0.05042,0.1937 0.08167,0.291 2.356771,6.3501 10.310334,7.3772 15.728884,7.2754 2.19566,9.9032 16.2842,15.253 23.60937,6.9981 1.96003,-2.2088 3.71875,-4.9093 4.41406,-7.4141 5.97324,1.7296 12.28932,-1.8576 14.91602,-7.1504 l 0,0.291 c 2.35677,6.3501 10.30995,7.3772 15.72851,7.2754 2.19568,9.9032 16.28421,15.253 23.60938,6.9981 1.96003,-2.2088 3.71875,-4.9093 4.41406,-7.4141 5.97325,1.7296 12.28932,-1.8576 14.91602,-7.1504 0.029,0.097 0.0505,0.1937 0.0817,0.291 2.35677,6.3501 10.31028,7.3772 15.72884,7.2754 2.19567,9.9032 16.28421,15.253 23.60938,6.9981 1.96003,-2.2088 3.71875,-4.9093 4.41406,-7.4141 5.97325,1.7296 12.289,-1.8576 14.9157,-7.1504 0.029,0.097 0.0508,0.1937 0.082,0.291 2.35677,6.3501 10.31028,7.3772 15.72883,7.2754 2.19567,9.9032 16.28421,15.253 23.60938,6.9981 1.96003,-2.2088 3.71875,-4.9093 4.41406,-7.4141 5.97324,1.7296 12.28932,-1.8576 14.91602,-7.1504 l 0,-33.2324 -58.7093,3e-4 -58.709,0 -58.74967,-3e-4 -58.668334,-7e-4 -58.75,0 z M 8.75,2356.3633 c 3.037566,0 5.5,2.4624 5.5,5.5 0,3.0376 -2.462434,5.5 -5.5,5.5 -3.037566,0 -5.5,-2.4624 -5.5,-5.5 0,-3.0376 2.462434,-5.5 5.5,-5.5 z m 58.75,0 c 3.037566,0 5.5,2.4624 5.5,5.5 0,3.0376 -2.462434,5.5 -5.5,5.5 -3.037566,0 -5.5,-2.4624 -5.5,-5.5 0,-3.0376 2.462434,-5.5 5.5,-5.5 z m 58.75,0 c 3.03756,0 5.5,2.4624 5.5,5.5 0,3.0376 -2.46244,5.5 -5.5,5.5 -3.03757,0 -5.5,-2.4624 -5.5,-5.5 0,-3.0376 2.46243,-5.5 5.5,-5.5 z m 58.66797,0 c 3.03757,0 5.5,2.4624 5.5,5.5 0,3.0376 -2.46243,5.5 -5.5,5.5 -3.03756,0 -5.5,-2.4624 -5.5,-5.5 0,-3.0376 2.46244,-5.5 5.5,-5.5 z m 58.75,0 c 3.03757,0 5.5,2.4624 5.5,5.5 0,3.0376 -2.46243,5.5 -5.5,5.5 -3.03756,0 -5.5,-2.4624 -5.5,-5.5 0,-3.0376 2.46244,-5.5 5.5,-5.5 z m 58.75,0 c 3.03756,0 5.5,2.4624 5.5,5.5 0,3.0376 -2.46244,5.5 -5.5,5.5 -3.03757,0 -5.5,-2.4624 -5.5,-5.5 0,-3.0376 2.46243,-5.5 5.5,-5.5 z m -304.1777356,10.5293 c 0.94916999,5.0322 -4.3489494,18.0133 -10.4121094,13.248 -6.06316,-4.7652 5.2981094,-12.9809 10.4121094,-13.248 z m 21.0195316,0 c 5.114,0.2671 16.475269,8.4828 10.412109,13.248 -6.06316,4.7653 -11.361279,-8.2158 -10.412109,-13.248 z m 37.730468,0 c 0.94917,5.0322 -4.348949,18.0133 -10.412109,13.248 -6.06316,-4.7652 5.298109,-12.9809 10.412109,-13.248 z m 21.019532,0 c 5.114,0.2671 16.475269,8.4828 10.412109,13.248 -6.06316,4.7653 -11.361279,-8.2158 -10.412109,-13.248 z m 37.730464,0 c 0.94917,5.0322 -4.34895,18.0133 -10.41211,13.248 -6.063142,-4.7652 5.29811,-12.9809 10.41211,-13.248 z m 21.01954,0 c 5.114,0.2671 16.47527,8.4828 10.41211,13.248 -6.06318,4.7653 -11.36128,-8.2158 -10.41211,-13.248 z m 37.64843,0 c 0.94917,5.0322 -4.34895,18.0133 -10.41211,13.248 -6.06316,-4.7652 5.29811,-12.9809 10.41211,-13.248 z m 21.01953,0 c 5.114,0.2671 16.47527,8.4828 10.41211,13.248 -6.06316,4.7653 -11.36128,-8.2158 -10.41211,-13.248 z m 37.73047,0 c 0.94917,5.0322 -4.34895,18.0133 -10.41211,13.248 -6.06316,-4.7652 5.29811,-12.9809 10.41211,-13.248 z m 21.01953,0 c 5.114,0.2671 16.47527,8.4828 10.41211,13.248 -6.06316,4.7653 -11.36128,-8.2158 -10.41211,-13.248 z m 37.73047,0 c 0.94917,5.0322 -4.34895,18.0133 -10.41211,13.248 -6.06315,-4.7652 5.29811,-12.9809 10.41211,-13.248 z m 21.01953,0 c 5.114,0.2671 16.47527,8.4828 10.41211,13.248 -6.06317,4.7653 -11.36128,-8.2158 -10.41211,-13.248 z M 8.75,2370.5117 c 5,4.37 10,21.8496 0,21.8496 -10,0 -5,-17.4796 0,-21.8496 z m 58.75,0 c 5,4.37 10,21.8496 0,21.8496 -10,0 -5,-17.4796 0,-21.8496 z m 58.75,0 c 5,4.37 10,21.8496 0,21.8496 -10,0 -5,-17.4796 0,-21.8496 z m 58.66797,0 c 5,4.37 10,21.8496 0,21.8496 -10,0 -5,-17.4796 0,-21.8496 z m 58.75,0 c 5,4.37 10,21.8496 0,21.8496 -10,0 -5,-17.4796 0,-21.8496 z m 58.75,0 c 5,4.37 10,21.8496 0,21.8496 -10,0 -5,-17.4796 0,-21.8496 z"
       id="path4550"
       inkscape:connector-curvature="0"
       sodipodi:nodetypes="cccsccccsccccsccccsccccsccccscccccccccsssssssssssssssssssssssssssssscsccsccsccsccsccsccsccsccsccsccsccsccsccsccsccsccsccsc" />
  </g>
</svg>
